PathFileType	4	(x/y/z)	S05_M20_T11
DataRate	CameraRate	NumFrames	NumMarkers	Units	OrigDataRate	OrigDataStartFrame	OrigNumFrames
240	240	5	50	mm	240	64	510
Frame#	Time	Sternum			R.Acromium			L.Acromium			Top.Head			R.ASIS			L.ASIS			R.PSIS			L.PSIS			R.Great.Tro			L.Great.Tro			R.Iliac.Crest			L.Iliac.Crest			V.Sacral			R.Thigh.Upper.Post			R.Thigh.Lower.Ant			R.Thigh.Lower.Post			R.Thigh.Upper.Ant			R.Knee.Lat			R.Knee.Med			R.Shank.Upper.Post			R.Shank.Lower.Ant			R.Shank.Lower.Post			R.Shank.Upper.Ant			R.Ankle.Lat			R.Ankle.Med			R.Heel.Upper			R.Heel.Med			R.Heel.Lat			R.Toe.Lat			R.Toe.Med			R.Toe.Tip			L.Thigh.Upper.Post			L.Thigh.Lower.Ant			L.Thigh.Lower.Post			L.Thigh.Upper.Ant			L.Knee.Lat			L.Shank.Upper.Post			L.Shank.Lower.Ant			L.Shank.Lower.Post			L.Shank.Upper.Ant			L.Ankle.Lat			L.Ankle.Med			L.Heel.Upper			L.Heel.Med			L.Heel.Lat			L.Toe.Lat			L.Toe.Med			L.Toe.Tip			Cervical.Spine			Back			
		X1	Y1	Z1	X2	Y2	Z2	X3	Y3	Z3	X4	Y4	Z4	X5	Y5	Z5	X6	Y6	Z6	X7	Y7	Z7	X8	Y8	Z8	X9	Y9	Z9	X10	Y10	Z10	X11	Y11	Z11	X12	Y12	Z12	X13	Y13	Z13	X14	Y14	Z14	X15	Y15	Z15	X16	Y16	Z16	X17	Y17	Z17	X18	Y18	Z18	X19	Y19	Z19	X20	Y20	Z20	X21	Y21	Z21	X22	Y22	Z22	X23	Y23	Z23	X24	Y24	Z24	X25	Y25	Z25	X26	Y26	Z26	X27	Y27	Z27	X28	Y28	Z28	X29	Y29	Z29	X30	Y30	Z30	X31	Y31	Z31	X32	Y32	Z32	X33	Y33	Z33	X34	Y34	Z34	X35	Y35	Z35	X36	Y36	Z36	X37	Y37	Z37	X38	Y38	Z38	X39	Y39	Z39	X40	Y40	Z40	X41	Y41	Z41	X42	Y42	Z42	X43	Y43	Z43	X44	Y44	Z44	X45	Y45	Z45	X46	Y46	Z46	X47	Y47	Z47	X48	Y48	Z48	X49	Y49	Z49	X50	Y50	Z50	

64	0.2625	-514.71	1239	316.05	-605.57	1511.6	448.4	-607.17	1502.5	116.87	-613	1801.6	248.74	-606.78	984.29	454.91	-568.64	996.21	208.33	-793.86	1009.9	341.42	-779.72	1014.8	250.91	-698.46	901.99	505.96	-632.64	918.77	115.74	-694.63	1072	480.64	-654.66	1070.8	147.22	-802.8	977.86	305.82	-608.66	680.48	522.14	-541.24	614.87	483.21	-606.39	590.98	506.19	-548.34	702.98	495.35	-613.78	500.92	494.71	-592.07	480.2	364.25	-833.68	423.4	458.53	-857.57	337.34	447.66	-896.94	386.34	433.28	-793.48	374.25	472.25	-957.24	308.61	420.27	-923.62	309.11	335.41	-1021.1	343.85	354.31	-1040.7	324.39	321.36	-1047.4	321.11	385.73	-994.48	163.35	432.96	-955.21	146.62	317.94	-916.56	95.568	366.04	-572.84	683.6	138.79	-482.36	633.34	177.7	-542.91	595.96	162.84	-504.15	718.98	154.57	-508.96	516.62	174.99	-574.41	315.47	177.32	-508.29	257.48	189.76	-578.66	244.65	197.12	-507.98	327.01	174.53	-557.06	114.21	211.15	-526.13	129.43	299.27	-617.81	66.839	262.9	-606.21	42.596	296.86	-613.11	38.475	235.35	-428.26	37.048	187.83	-409.92	51.897	307.96	-345.07	62.018	255.24	-660.37	1546.6	287.06	-783.3	1274.1	302.15
65	0.26667	-509.8	1240.4	315.79	-600.79	1513	448.2	-602.23	1503.8	116.66	-607.89	1802.9	248.82	-601.45	985.86	454.5	-564	997.31	207.89	-788.85	1011	341.68	-774.92	1015.9	251.14	-692.5	903.41	506.08	-628.48	919.6	115.71	-689.32	1073.5	480.49	-650.16	1071.9	147.03	-797.85	978.97	306.13	-599.82	682.88	522.2	-531.73	618.16	482.8	-596.39	593.4	506.27	-539.97	706.2	495.1	-602.61	503.24	494.57	-580.79	482.95	364.03	-822.03	424.42	458.44	-845.29	338.23	447.48	-885.05	386.92	433.23	-781.44	375.56	471.99	-944.79	308.93	420.07	-909.92	309.74	335.43	-1009.4	343.43	354.17	-1028.8	323.68	321.24	-1035.3	320.44	385.67	-980.17	163.54	433.08	-940.92	147.12	317.98	-901.42	96.827	366.17	-570	684.02	138.74	-479.79	633.14	177.45	-540.64	596.19	162.74	-501.01	718.93	154.3	-507.18	516.56	174.88	-573.47	315.65	177.22	-507.57	257.43	189.75	-578	244.86	197.06	-507	326.95	174.48	-556.94	114.3	211.16	-525.93	129.5	299.28	-617.64	66.89	262.99	-606.19	42.638	296.88	-613.09	38.553	235.37	-428.25	37.01	187.79	-409.86	51.823	307.96	-345.01	61.876	255.23	-655.47	1547.8	286.8	-778.33	1275.3	301.95
66	0.27083	-504.9	1241.7	315.55	-596.03	1514.4	448.02	-597.32	1505.1	116.47	-602.81	1804.3	248.92	-596.12	987.43	454.09	-559.38	998.39	207.45	-783.85	1012.2	341.95	-770.14	1017	251.37	-686.55	904.85	506.19	-624.34	920.42	115.68	-684.01	1075	480.34	-645.67	1073	146.86	-792.9	980.07	306.46	-591.02	685.34	522.26	-522.29	621.5	482.37	-586.44	595.9	506.33	-531.66	709.47	494.83	-591.51	505.63	494.41	-569.57	485.77	363.79	-810.42	425.37	458.3	-833	339.02	447.28	-873.16	387.38	433.14	-769.41	376.83	471.72	-932.29	309.08	419.85	-896.17	310.18	335.45	-997.58	342.76	353.98	-1016.7	322.68	321.06	-1023.1	319.51	385.56	-965.72	163.57	433.24	-926.44	147.42	318.1	-886.07	97.956	366.42	-567.23	684.43	138.7	-477.29	632.93	177.17	-538.45	596.41	162.64	-497.92	718.86	154	-505.46	516.5	174.77	-572.56	315.81	177.12	-506.88	257.38	189.74	-577.37	245.06	197	-506.06	326.88	174.43	-556.79	114.4	211.16	-525.72	129.57	299.31	-617.47	66.941	263.08	-606.17	42.678	296.89	-613.07	38.633	235.4	-428.23	36.974	187.76	-409.81	51.745	307.96	-344.95	61.734	255.22	-650.59	1549.1	286.55	-773.37	1276.5	301.76
67	0.275	-500.02	1243.1	315.3	-591.27	1515.8	447.85	-592.43	1506.4	116.29	-597.76	1805.6	249.04	-590.8	988.98	453.68	-554.78	999.46	207.02	-778.85	1013.3	342.24	-765.36	1018.1	251.62	-680.62	906.31	506.31	-620.22	921.22	115.64	-678.73	1076.5	480.2	-641.2	1074	146.69	-787.96	981.17	306.79	-582.25	687.85	522.3	-512.91	624.9	481.91	-576.54	598.47	506.38	-523.4	712.79	494.54	-580.48	508.08	494.23	-558.44	488.67	363.53	-798.85	426.25	458.1	-820.68	339.73	447.06	-861.27	387.71	433.01	-757.39	378.06	471.43	-919.73	309.07	419.62	-882.39	310.44	335.46	-985.75	341.84	353.72	-1004.5	321.4	320.84	-1010.9	318.33	385.41	-951.15	163.44	433.43	-911.77	147.54	318.27	-870.51	98.963	366.79	-564.53	684.84	138.66	-474.84	632.71	176.88	-536.31	596.63	162.55	-494.87	718.78	153.68	-503.8	516.44	174.65	-571.68	315.97	177.01	-506.21	257.33	189.74	-576.76	245.26	196.94	-505.15	326.82	174.38	-556.61	114.5	211.16	-525.53	129.65	299.33	-617.31	66.993	263.17	-606.16	42.719	296.9	-613.06	38.717	235.42	-428.22	36.94	187.72	-409.75	51.665	307.95	-344.9	61.592	255.21	-645.72	1550.3	286.33	-768.42	1277.7	301.59
68	0.27917	-495.13	1244.5	315.06	-586.52	1517.1	447.69	-587.57	1507.7	116.12	-592.72	1806.9	249.19	-585.47	990.52	453.26	-550.19	1000.5	206.59	-773.87	1014.4	342.54	-760.59	1019.2	251.88	-674.69	907.77	506.44	-616.12	922	115.6	-673.46	1077.9	480.06	-636.74	1075.1	146.53	-783.03	982.26	307.14	-573.52	690.42	522.34	-503.61	628.35	481.44	-566.69	601.11	506.41	-515.2	716.14	494.23	-569.52	510.59	494.03	-547.41	491.62	363.25	-787.32	427.04	457.86	-808.35	340.35	446.83	-849.39	387.91	432.83	-745.38	379.25	471.13	-907.12	308.89	419.37	-868.63	310.53	335.46	-973.86	340.67	353.42	-992.3	319.85	320.58	-998.63	316.9	385.21	-936.44	163.16	433.65	-896.93	147.48	318.51	-854.76	99.853	367.27	-561.89	685.24	138.64	-472.46	632.48	176.57	-534.24	596.85	162.45	-491.87	718.68	153.33	-502.19	516.38	174.53	-570.83	316.13	176.91	-505.57	257.28	189.74	-576.17	245.45	196.89	-504.27	326.76	174.33	-556.39	114.61	211.15	-525.33	129.73	299.36	-617.16	67.044	263.26	-606.14	42.761	296.92	-613.04	38.804	235.45	-428.2	36.909	187.68	-409.69	51.58	307.95	-344.84	61.449	255.2	-640.87	1551.5	286.12	-763.49	1278.8	301.42
